# xmcd
#
# Track frame offsets: 
#        150
#        11268
#        22295
#        32842
#        44019
#        54642
#        67043
#        76924
#        88931
#        102115
#        116169
#        127878
#        137607
#        148319
#        161384
#        171612
#        187267
#        199056
#        212042
#        222459
#        234292
#        243630
#        255548
#        265481
#        277602
#        290506
#
# Disc length: 4025 seconds
#
# Revision: 0
# Processed by: cddbd v1.5.2PL0 Copyright (c) Steve Scherf et al.
# Submitted via: ExactAudioCopy v0.99pb4
#
DISCID=930fb71a
DTITLE=Various Artist - Juke Joints 3 [Disc C]
DYEAR=2012
DGENRE=Electric Blues
TTITLE0=Jerry McCain - She's Tough
TTITLE1=Willie Nix - Baker Shop Boogie Tk 1
TTITLE2=Leslie Louis - Ridin' Home
TTITLE3=Country Jim - Sad and Lonely
TTITLE4=Smokey Hogg - Crawdad
TTITLE5=Manny Nicholls - No One to Love Me
TTITLE6=Slim Harpo - Wonderin' and Worryin'
TTITLE7=Lightnin' Slim - Lightnin' Slim Boogie
TTITLE8=Boy Green - A and B Blues
TTITLE9=Homesick James - Homesick Blues
TTITLE10=Johnny Williams - Fat Mouth
TTITLE11=Dan Pickett - Number Writer
TTITLE12=Big Joe Williams - King's Highway
TTITLE13=Pinetop Slim - John Henry
TTITLE14=Earl Hooker - Jammin'
TTITLE15=Nat Terry - Take It Easy
TTITLE16=Silver Cooks - Mr. Ticket Agent
TTITLE17=Big Boy Spires - Which One Do I Love
TTITLE18=L.C. Greene - Little School Girl
TTITLE19=Sunny James - Excuse Me Baby
TTITLE20=Honeyboy - Have You a Match
TTITLE21=Little Sam Davis - Goin' to New Orleans
TTITLE22=Clarence London - Want to Boogie-Woogie
TTITLE23=Boogie Bill Webb - Love Me Mama
TTITLE24=Leroy Johnson - Log House on the Hill
TTITLE25=Eddie Taylor - You'll Always Have a Home
EXTD=
EXTT0=
EXTT1=
EXTT2=
EXTT3=
EXTT4=
EXTT5=
EXTT6=
EXTT7=
EXTT8=
EXTT9=
EXTT10=
EXTT11=
EXTT12=
EXTT13=
EXTT14=
EXTT15=
EXTT16=
EXTT17=
EXTT18=
EXTT19=
EXTT20=
EXTT21=
EXTT22=
EXTT23=
EXTT24=
EXTT25=
PLAYORDER=
